<?xml version="1.0" encoding="utf-8"?>
<!-- Generator: Adobe Illustrator 17.0.0, SVG Export Plug-In . SVG Version: 6.00 Build 0)  -->
<!DOCTYPE svg PUBLIC "-//W3C//DTD SVG 1.1//EN" "http://www.w3.org/Graphics/SVG/1.1/DTD/svg11.dtd">
<svg version="1.1" id="Layer_1" xmlns="http://www.w3.org/2000/svg" xmlns:xlink="http://www.w3.org/1999/xlink" x="0px" y="0px"
	 width="397.906px" height="589.958px" viewBox="0 0 397.906 589.958" enable-background="new 0 0 397.906 589.958"
	 xml:space="preserve">
<g>
	<path stroke="#231F20" stroke-miterlimit="10" d="M48.538,114.132c0,0,39.176-76.117,135.634-106.156
		c73.684-22.947,114.504,9.329,129.987,25.211c21.228,21.775,62.359,88.065-34.469,204.354
		c-69.248,83.165-255.36,201.725-266.276,204.098S2.497,428.823,2.497,428.823s40.345-24.207,58.856-36.073
		s174.984-114.083,234.475-208.37c50.312-79.741,19.105-133.078,4.391-146.368c-11.004-9.939-49.008-36.371-110.237-14.063
		S79.39,96.57,66.1,120.303C60.879,123.151,49.487,122.201,48.538,114.132z"/>
	<path stroke="#231F20" stroke-miterlimit="10" d="M371.186,53.272c14.192-0.134,17.673,16.876,14.072,21.623
		c-4.672,6.159-14.436,5.696-20.132,0.316C357.469,67.979,358.14,53.396,371.186,53.272z"/>
	<path stroke="#231F20" stroke-miterlimit="10" d="M374.667,98.522c14.192-0.134,17.673,16.876,14.072,21.623
		c-4.672,6.159-14.436,5.696-20.132,0.316C360.95,113.229,361.62,98.645,374.667,98.522z"/>
	<path stroke="#231F20" stroke-miterlimit="10" d="M134.765,156.218c-3.384,1.861-0.316-27.529,4.114-35.44
		c4.43-7.911,17.404-28.479,11.708-35.124c-5.696,6.329-22.15,16.454-53.477,79.424s-24.049,79.424-19.619,80.057
		c4.43,0.633,17.087,4.781,39.237-24.19s63.286-107.762,81.639-157.441c2.531-5.063,5.063-7.911,8.227-6.012
		c3.164,1.899,4.746,26.264-16.771,75.627s-29.428,49.047-30.377,52.211c4.114-1.266,11.075-3.481,21.834,3.481
		c4.746-7.911,10.662-13.769,14.556-15.189c4.054-1.167,6.961,5.063,6.961,5.063s12.024-12.657,16.771-5.696
		c3.164-3.164,7.911-8.86,15.505-5.063c7.594,3.797,0.633,14.872-0.949,18.986c-1.582,4.114-10.759,22.467,0,8.544
		c10.759-13.923,13.923-17.72,22.15-14.556s5.063,27.529,0,34.491s-14.872-10.724-24.998,6.504
		c-10.126,17.228-20.252,11.216-22.15,10.267c-1.899-0.949-5.379-3.481-2.848-15.189c2.531-11.708,6.012-23.732-4.09-11.543
		c0,0-6.036,9.644-14.263,9.011c-2.848,8.86-9.104,24.998-21.164,29.428c-12.061,4.43-16.174-7.278-14.909-14.556
		c1.266-7.278,2.215-15.505,2.215-15.505s-13.29,22.326-22.15,32.522c-8.86,10.196-11.708-8.157-11.708-8.157
		s-16.138,22.467-50.945,16.138c-21.201-7.594-3.58-51.226,1.899-67.083c0,0,34.217-80.92,71.513-114.548
		c19.302-17.404,24.365,21.201,18.669,38.288C155.65,128.055,141.094,152.737,134.765,156.218z"/>
	<path stroke="#231F20" stroke-miterlimit="10" d="M237.921,129.637c7.278,0.949,6.961,6.012,6.329,9.493
		c-0.633,3.481-3.481,8.227-10.442,6.329c-6.961-1.899-5.063-9.493-2.531-12.657C233.808,129.637,237.921,129.637,237.921,129.637z"
		/>
	<path stroke="#231F20" stroke-miterlimit="10" d="M87.459,489.103c11.392-14.714,48.656-89.368,72.742-146.496
		c6.049-10.612,13.48,3.152,12.138,9.323c-1.342,6.17-61.148,132.901-71.59,146.666C94.104,500.494,89.357,497.646,87.459,489.103z"
		/>
	<path stroke="#231F20" stroke-miterlimit="10" d="M326.301,387.137c5.67-16.728,35.037-103.977,37.085-114.948
		c2.848-4.588,12.815-0.949,11.392,9.968c-1.424,10.917-34.807,114.073-39.396,126.889c3.797-1.899,12.024-11.392,15.663-15.663
		c2.215-2.215,6.012-1.424,9.018,1.424c2.475,2.344,3.429,9.053,2.012,12.058c-0.32,0.678,0.123,1.449,0.871,1.502
		c2.697,0.192,6.486-3.471,8.825-0.27c3.006,4.114,1.74,8.385,5.221,9.018c3.481,0.633,8.069,5.063,6.329,11.55
		c-1.74,6.487-9.493,7.436-15.98,4.272c-3.44-1.678-3.423-8.048-5.854-10.759c-2.153-2.401-4.272,2.848-7.911-0.316
		c-1.966-1.709-3.481-9.018-6.803-7.911c-3.323,3.797-12.024,16.771-18.986,15.03c-6.961-1.74-3.797-3.955-7.911,3.797
		c-4.114,7.753-13.132,14.556-22.15,12.974c-9.018-1.582-10.6-16.613-10.6-16.613s-7.594-1.266-8.702-3.164
		c-1.74,3.006-5.379,6.645-10.759,5.379c-5.379-1.266-3.164-3.164-6.961,2.373c-3.797,5.538-8.227,7.911-14.556,6.329
		c-6.329-1.582-2.848-6.012-9.968,8.385c-7.12,14.398-24.207,46.357-26.422,56.957c-2.215,10.6-13.448,43.351-17.72,57.116
		c-4.272,13.765-9.18,26.264-19.542,27.371c-10.361,1.108-12.26-10.759-12.26-15.347s3.323-18.037,11.075-31.643
		s18.353-31.327,21.359-42.402c3.006-11.075,15.663-48.889,9.335-40.503s-15.03,0.316-16.454,3.006
		c-1.424,2.69-4.588,9.809-9.176,10.126c-4.588,0.316-5.063,0.158-6.803-0.949c-1.74-1.108,0.922-3.689-5.221,2.69
		c-6.576,6.828-7.91,8.031-10.146,9.552c-2.329,1.585-7.458,5.996-12.005,4.212c-6.531-2.562-4.1-9.931-1.424-14.556
		c1.91-3.301,6.645-1.187,6.487-11.787c-0.055-3.703-6.157,12.982-11.866,15.901c-5.34,2.729-20.168,2.316-19.814-5.171
		c5.416-1.474,11.11-5.271,17.479-17.138c6.369-11.866,12.065-24.919,17.998-23.495c5.933,1.424,12.341,6.645,13.053,14.714
		c2.848-4.984,2.373-3.797,4.272-10.442c1.899-6.645,2.053-9.493,4.112-10.917c2.059-1.424,6.805-5.696,10.128,0.237
		c1.46,2.608-7.12,21.834-5.221,21.122c1.899-0.712,8.598-12.169,9.018-13.053c2.373-4.984,7.12-6.867,10.205-3.94
		c3.955,1.108,4.905,5.997,4.272,8.212c2.373-3.164,13.053-21.834,22.783-21.122c5.707,0.418,6.961,9.414,8.544,5.617
		s4.114-11.866,9.335-12.657c5.221-0.791,6.645-0.475,8.227,0.633c1.582,1.107,2.373,7.436,4.272,2.848
		c1.899-4.588,3.77-10.105,7.436-10.759c2.031-0.362,6.084,0.077,7.753,3.955c1.309,3.042-1.99,5.33-0.633,5.221
		c3.955-0.316,7.256-10.181,10.759-11.075c3.234-0.825,4.746,0,5.221,0s4.588,2.057,5.538,4.43c1.424,0.158,2.69,0,3.481-0.949
		c0.791-0.949,8.227-7.911,8.227-7.911c2.215-1.582,3.955-3.323,7.436-5.221c3.481-1.899,7.612-4.203,11.776-3.193
		c0,0,2.246,0.879,2.84,3.608c1.308,6.016-6.722,20.001-6.88,15.413c-0.158-4.588,3.498-9.183-0.616-7.601
		c-4.114,1.582-16.771,24.365-15.03,32.118C303.106,439.423,326.301,387.137,326.301,387.137z"/>
	<path stroke="#231F20" stroke-miterlimit="10" d="M222.733,381.833c0-8.781,7.594-10.205,12.578-5.933
		c4.984,4.272-0.237,17.325-6.882,13.765C221.784,386.104,222.733,381.833,222.733,381.833z"/>
	<path stroke="#231F20" stroke-miterlimit="10" d="M249.639,367.119c4.421-2.611,8.93-3.56,14.151,2.373
		c5.221,5.933-4.895,10.627-7.075,12.433c-2.18,1.806-11.198-1.279-12.385-5.788C243.143,371.628,249.639,367.119,249.639,367.119z"
		/>
	<path stroke="#231F20" stroke-miterlimit="10" d="M392.419,344.336c6.408,4.984,6.882,10.205,3.085,12.341
		c-3.797,2.136-10.205-2.373-10.917-6.17c-0.712-3.797,0-5.696,1.899-6.408C388.384,343.386,392.419,344.336,392.419,344.336z"/>
</g>
</svg>
